<svg version="1.1" id="Layer_1" xmlns="http://www.w3.org/2000/svg" xmlns:xlink="http://www.w3.org/1999/xlink" x="0px" y="0px"
	 width="100%" viewBox="0 0 512 512" enable-background="new 0 0 512 512" xml:space="preserve">
<path fill="#ff000000" opacity="1.000000" stroke="none" 
	d="
M331.000000,513.000000 
	C220.693466,513.000000 110.886925,513.000000 1.040193,513.000000 
	C1.040193,342.401764 1.040193,171.803528 1.040193,1.102647 
	C171.556549,1.102647 342.113159,1.102647 512.834900,1.102647 
	C512.834900,171.666534 512.834900,342.333252 512.834900,513.000000 
	C452.470184,513.000000 391.985077,513.000000 331.000000,513.000000 
M193.428238,89.991554 
	C190.321030,88.860542 187.204391,87.754692 184.108139,86.594429 
	C164.033340,79.071785 145.369278,87.834129 138.462418,108.137337 
	C136.440475,114.080963 134.608551,120.095612 132.887466,126.134132 
	C124.195152,156.631577 115.500687,187.128769 106.964622,217.670120 
	C104.768784,225.526672 107.662422,230.044312 115.552299,231.924500 
	C121.003601,233.223572 126.542137,234.165512 131.974228,235.534714 
	C155.283890,241.410141 178.993484,244.678253 202.950623,245.887054 
	C219.212357,246.707565 235.518143,246.939606 251.803802,246.926453 
	C270.422028,246.911407 289.041107,246.391205 307.657196,245.973343 
	C316.280823,245.779785 324.910614,245.490738 333.514465,244.905045 
	C340.266693,244.445374 347.032959,243.761703 353.705475,242.651566 
	C367.864075,240.295944 381.935822,237.415466 396.100372,235.100006 
	C406.409027,233.414871 409.446198,228.134384 406.632111,218.020996 
	C401.098969,198.135468 396.052216,178.111740 391.011292,158.093048 
	C386.824005,141.464539 384.046112,124.387672 378.607758,108.193176 
	C372.834290,91.000740 354.637207,80.508087 335.926239,84.509773 
	C323.118896,87.248856 310.659241,92.236046 298.527222,97.361626 
	C281.129913,104.711708 263.132385,107.365631 244.594711,105.774155 
	C226.772675,104.244102 210.110245,98.211464 193.428238,89.991554 
M283.725739,423.846100 
	C290.852234,428.928650 298.818115,431.557434 307.531342,430.922699 
	C316.420959,430.275085 325.414337,429.720032 334.103241,427.892609 
	C363.056671,421.803223 388.713562,409.704956 406.549561,384.867371 
	C418.053131,368.848053 426.227570,351.428741 424.889618,331.086792 
	C424.139099,319.676086 417.938721,307.796448 401.876007,310.021454 
	C386.179169,312.195862 370.480591,314.499878 354.710114,315.964417 
	C335.603333,317.738739 316.430084,319.595398 297.268158,319.802246 
	C262.997559,320.172211 228.711685,319.470123 194.436996,318.918945 
	C183.851181,318.748718 173.233337,318.029114 162.714371,316.825226 
	C145.824722,314.892273 129.010254,312.308685 112.154213,310.073914 
	C101.795792,308.700592 93.908257,312.630249 91.356125,321.977203 
	C89.522293,328.693451 88.411079,336.208557 89.441193,342.993225 
	C92.614357,363.892944 102.668831,381.757935 117.395866,396.714661 
	C129.068893,408.569794 143.468140,416.422974 159.057785,422.135925 
	C171.878525,426.834198 185.066910,429.378632 198.687485,430.538696 
	C209.231277,431.436737 219.436554,431.309509 228.231262,424.988068 
	C233.116821,421.476440 236.906998,416.461945 241.295670,412.233582 
	C250.278122,403.579224 263.700317,403.512360 272.613464,412.181488 
	C276.291412,415.758728 279.623322,419.691711 283.725739,423.846100 
M118.804848,276.822845 
	C138.754883,279.585571 158.653183,282.833191 178.670120,284.968689 
	C197.090698,286.933990 215.631058,288.620056 234.132736,288.777588 
	C259.861969,288.996704 285.612701,287.896454 311.337616,286.922241 
	C324.554810,286.421753 337.873657,285.834015 350.903229,283.758270 
	C374.020569,280.075500 397.095459,275.856476 419.914337,270.659668 
	C436.521820,266.877441 452.662292,260.984283 466.121765,249.881149 
	C475.802673,241.895065 479.062531,231.597870 468.439301,220.966827 
	C459.167175,211.687820 447.295563,206.985641 435.273499,202.688004 
	C429.185120,200.511505 422.931091,198.798416 415.934906,196.621597 
	C417.979126,204.246490 419.550934,210.650223 421.418854,216.966385 
	C425.608582,231.133530 419.153503,243.840073 404.758575,247.919159 
	C396.075012,250.379807 387.070892,251.808670 378.141418,253.279709 
	C363.490814,255.693253 348.849915,258.590179 334.083954,259.772766 
	C315.079132,261.294830 295.952881,261.922577 276.882660,261.856384 
	C250.143127,261.763580 223.385635,261.123535 196.677765,259.842865 
	C181.363754,259.108551 166.026184,257.285156 150.895172,254.772247 
	C136.598663,252.397934 122.495720,248.727966 108.425125,245.164078 
	C96.856979,242.233994 88.310432,227.511459 91.779686,216.727600 
	C93.712601,210.719299 94.605942,204.376587 96.156425,197.326859 
	C78.468475,202.266373 61.808296,207.205734 48.100052,218.539948 
	C37.723366,227.119553 35.793835,235.683807 43.149704,244.756546 
	C47.568085,250.206207 53.980022,254.483109 60.250751,257.903290 
	C78.262695,267.727448 98.108177,272.304016 118.804848,276.822845 
z"/>
<path fill="#5F0761" opacity="1.000000" stroke="none" 
	d="
M193.809570,90.071259 
	C210.110245,98.211464 226.772675,104.244102 244.594711,105.774155 
	C263.132385,107.365631 281.129913,104.711708 298.527222,97.361626 
	C310.659241,92.236046 323.118896,87.248856 335.926239,84.509773 
	C354.637207,80.508087 372.834290,91.000740 378.607758,108.193176 
	C384.046112,124.387672 386.824005,141.464539 391.011292,158.093048 
	C396.052216,178.111740 401.098969,198.135468 406.632111,218.020996 
	C409.446198,228.134384 406.409027,233.414871 396.100372,235.100006 
	C381.935822,237.415466 367.864075,240.295944 353.705475,242.651566 
	C347.032959,243.761703 340.266693,244.445374 333.514465,244.905045 
	C324.910614,245.490738 316.280823,245.779785 307.657196,245.973343 
	C289.041107,246.391205 270.422028,246.911407 251.803802,246.926453 
	C235.518143,246.939606 219.212357,246.707565 202.950623,245.887054 
	C178.993484,244.678253 155.283890,241.410141 131.974228,235.534714 
	C126.542137,234.165512 121.003601,233.223572 115.552299,231.924500 
	C107.662422,230.044312 104.768784,225.526672 106.964622,217.670120 
	C115.500687,187.128769 124.195152,156.631577 132.887466,126.134132 
	C134.608551,120.095612 136.440475,114.080963 138.462418,108.137337 
	C145.369278,87.834129 164.033340,79.071785 184.108139,86.594429 
	C187.204391,87.754692 190.321030,88.860542 193.809570,90.071259 
z"/>
<path fill="#5F0761" opacity="1.000000" stroke="none" 
	d="
M283.419189,423.654480 
	C279.623322,419.691711 276.291412,415.758728 272.613464,412.181488 
	C263.700317,403.512360 250.278122,403.579224 241.295670,412.233582 
	C236.906998,416.461945 233.116821,421.476440 228.231262,424.988068 
	C219.436554,431.309509 209.231277,431.436737 198.687485,430.538696 
	C185.066910,429.378632 171.878525,426.834198 159.057785,422.135925 
	C143.468140,416.422974 129.068893,408.569794 117.395866,396.714661 
	C102.668831,381.757935 92.614357,363.892944 89.441193,342.993225 
	C88.411079,336.208557 89.522293,328.693451 91.356125,321.977203 
	C93.908257,312.630249 101.795792,308.700592 112.154213,310.073914 
	C129.010254,312.308685 145.824722,314.892273 162.714371,316.825226 
	C173.233337,318.029114 183.851181,318.748718 194.436996,318.918945 
	C228.711685,319.470123 262.997559,320.172211 297.268158,319.802246 
	C316.430084,319.595398 335.603333,317.738739 354.710114,315.964417 
	C370.480591,314.499878 386.179169,312.195862 401.876007,310.021454 
	C417.938721,307.796448 424.139099,319.676086 424.889618,331.086792 
	C426.227570,351.428741 418.053131,368.848053 406.549561,384.867371 
	C388.713562,409.704956 363.056671,421.803223 334.103241,427.892609 
	C325.414337,429.720032 316.420959,430.275085 307.531342,430.922699 
	C298.818115,431.557434 290.852234,428.928650 283.419189,423.654480 
M140.136642,368.093933 
	C144.243118,376.043121 149.995972,382.584595 157.275162,387.736877 
	C178.100403,402.477234 206.830887,405.111511 226.091446,382.267456 
	C234.393051,372.421295 235.735367,357.332092 222.038177,349.854462 
	C198.973984,337.263153 174.519257,336.023407 149.865372,344.791260 
	C139.935226,348.322815 136.654480,357.165466 140.136642,368.093933 
M330.532471,339.999878 
	C319.672668,340.531555 309.173676,342.664124 299.535522,347.841980 
	C285.043396,355.627502 283.097839,367.418396 290.433746,379.339478 
	C297.975769,391.595490 310.063782,398.160767 324.399597,398.856018 
	C347.041443,399.954132 364.060699,389.308319 376.777863,371.267975 
	C381.728821,364.244629 381.581421,355.599823 375.602081,349.806366 
	C371.879547,346.199554 366.470184,343.212372 361.408051,342.348419 
	C351.580261,340.671051 341.463623,340.685852 330.532471,339.999878 
z"/>
<path fill="#5F0761" opacity="1.000000" stroke="none" 
	d="
M118.407608,276.664581 
	C98.108177,272.304016 78.262695,267.727448 60.250751,257.903290 
	C53.980022,254.483109 47.568085,250.206207 43.149704,244.756546 
	C35.793835,235.683807 37.723366,227.119553 48.100052,218.539948 
	C61.808296,207.205734 78.468475,202.266373 96.156425,197.326859 
	C94.605942,204.376587 93.712601,210.719299 91.779686,216.727600 
	C88.310432,227.511459 96.856979,242.233994 108.425125,245.164078 
	C122.495720,248.727966 136.598663,252.397934 150.895172,254.772247 
	C166.026184,257.285156 181.363754,259.108551 196.677765,259.842865 
	C223.385635,261.123535 250.143127,261.763580 276.882660,261.856384 
	C295.952881,261.922577 315.079132,261.294830 334.083954,259.772766 
	C348.849915,258.590179 363.490814,255.693253 378.141418,253.279709 
	C387.070892,251.808670 396.075012,250.379807 404.758575,247.919159 
	C419.153503,243.840073 425.608582,231.133530 421.418854,216.966385 
	C419.550934,210.650223 417.979126,204.246490 415.934906,196.621597 
	C422.931091,198.798416 429.185120,200.511505 435.273499,202.688004 
	C447.295563,206.985641 459.167175,211.687820 468.439301,220.966827 
	C479.062531,231.597870 475.802673,241.895065 466.121765,249.881149 
	C452.662292,260.984283 436.521820,266.877441 419.914337,270.659668 
	C397.095459,275.856476 374.020569,280.075500 350.903229,283.758270 
	C337.873657,285.834015 324.554810,286.421753 311.337616,286.922241 
	C285.612701,287.896454 259.861969,288.996704 234.132736,288.777588 
	C215.631058,288.620056 197.090698,286.933990 178.670120,284.968689 
	C158.653183,282.833191 138.754883,279.585571 118.407608,276.664581 
z"/>
<path fill="#000000" opacity="1.000000" stroke="none" 
	d="
M140.068909,367.708618 
	C136.654480,357.165466 139.935226,348.322815 149.865372,344.791260 
	C174.519257,336.023407 198.973984,337.263153 222.038177,349.854462 
	C235.735367,357.332092 234.393051,372.421295 226.091446,382.267456 
	C206.830887,405.111511 178.100403,402.477234 157.275162,387.736877 
	C149.995972,382.584595 144.243118,376.043121 140.068909,367.708618 
M195.919342,383.860382 
	C204.219315,382.180908 211.253113,378.480774 215.532822,370.856445 
	C218.307281,365.913757 217.612579,363.687408 212.584671,361.308960 
	C194.806976,352.899109 176.269852,353.559143 157.611710,357.257874 
	C153.267471,358.119080 152.483215,360.851349 155.007568,364.501373 
	C164.680328,378.487579 178.205322,384.647095 195.919342,383.860382 
z"/>
<path fill="#000000" opacity="1.000000" stroke="none" 
	d="
M330.999573,339.999725 
	C341.463623,340.685852 351.580261,340.671051 361.408051,342.348419 
	C366.470184,343.212372 371.879547,346.199554 375.602081,349.806366 
	C381.581421,355.599823 381.728821,364.244629 376.777863,371.267975 
	C364.060699,389.308319 347.041443,399.954132 324.399597,398.856018 
	C310.063782,398.160767 297.975769,391.595490 290.433746,379.339478 
	C283.097839,367.418396 285.043396,355.627502 299.535522,347.841980 
	C309.173676,342.664124 319.672668,340.531555 330.999573,339.999725 
M354.526855,374.011871 
	C357.168732,371.322052 360.048248,368.823425 362.400024,365.900238 
	C366.531982,360.764343 365.947571,358.803253 359.508087,357.069000 
	C346.462555,353.555725 333.193237,354.083008 320.137360,356.635498 
	C314.344666,357.768005 308.860504,360.733185 303.437286,363.292389 
	C302.314697,363.822113 301.101227,366.808685 301.610992,367.686096 
	C303.729645,371.332825 305.956573,375.238831 309.111145,377.905212 
	C322.091949,388.877258 343.619110,383.570557 354.526855,374.011871 
z"/>
<path fill="#5F0761" opacity="1.000000" stroke="none" 
	d="
M195.478363,383.904602 
	C178.205322,384.647095 164.680328,378.487579 155.007568,364.501373 
	C152.483215,360.851349 153.267471,358.119080 157.611710,357.257874 
	C176.269852,353.559143 194.806976,352.899109 212.584671,361.308960 
	C217.612579,363.687408 218.307281,365.913757 215.532822,370.856445 
	C211.253113,378.480774 204.219315,382.180908 195.478363,383.904602 
z"/>
<path fill="#5F0761" opacity="1.000000" stroke="none" 
	d="
M354.266479,374.258118 
	C343.619110,383.570557 322.091949,388.877258 309.111145,377.905212 
	C305.956573,375.238831 303.729645,371.332825 301.610992,367.686096 
	C301.101227,366.808685 302.314697,363.822113 303.437286,363.292389 
	C308.860504,360.733185 314.344666,357.768005 320.137360,356.635498 
	C333.193237,354.083008 346.462555,353.555725 359.508087,357.069000 
	C365.947571,358.803253 366.531982,360.764343 362.400024,365.900238 
	C360.048248,368.823425 357.168732,371.322052 354.266479,374.258118 
z"/>
</svg>